<svg width="64" height="65" viewBox="0 0 64 65" fill="none" xmlns="http://www.w3.org/2000/svg">
<path opacity="0.5" d="M9.00671 14.5059C8 15.9402 8 20.2037 8 28.7305V32.9298C8 47.9646 19.3039 55.2608 26.3962 58.3589C28.32 59.1993 29.282 59.6195 32 59.6195C34.718 59.6195 35.68 59.1993 37.6038 58.3589C44.6961 55.2608 56 47.9646 56 32.9298V28.7305C56 20.2037 56 15.9402 54.9933 14.5059C53.9866 13.0716 49.9778 11.6994 41.9602 8.95491L40.4327 8.43205C36.2534 7.00144 34.1637 6.28613 32 6.28613C29.8363 6.28613 27.7466 7.00144 23.5673 8.43204L22.0398 8.95491L22.0398 8.95491C14.0222 11.6994 10.0134 13.0716 9.00671 14.5059Z" fill="#6CB296"/>
<path d="M28.963 23.2557L28.6135 23.8828C28.2296 24.5715 28.0376 24.9159 27.7383 25.1431C27.439 25.3703 27.0662 25.4547 26.3206 25.6234L26.3206 25.6234L25.6418 25.7769C23.0182 26.3706 21.7064 26.6674 21.3943 27.671C21.0822 28.6747 21.9765 29.7205 23.7651 31.812L24.2279 32.3532L24.2279 32.3532C24.7361 32.9475 24.9903 33.2447 25.1046 33.6123C25.2189 33.98 25.1805 34.3765 25.1037 35.1695L25.0337 35.8915C24.7633 38.6821 24.6281 40.0774 25.4452 40.6977C26.2623 41.318 27.4905 40.7524 29.947 39.6214L29.9471 39.6214L30.5826 39.3287C31.2807 39.0073 31.6297 38.8466 31.9997 38.8466C32.3697 38.8466 32.7187 39.0073 33.4168 39.3287L34.0523 39.6214L34.0523 39.6214C36.5088 40.7524 37.7371 41.318 38.5542 40.6977C39.3713 40.0774 39.2361 38.6821 38.9657 35.8915L38.8957 35.1695L38.8957 35.1694C38.8189 34.3765 38.7804 33.98 38.8948 33.6123C39.0091 33.2447 39.2632 32.9475 39.7715 32.3532L40.2342 31.812C42.0229 29.7205 42.9172 28.6747 42.6051 27.671C42.293 26.6674 40.9812 26.3706 38.3575 25.7769L37.6787 25.6234C36.9332 25.4547 36.5604 25.3703 36.2611 25.1431C35.9618 24.9159 35.7698 24.5715 35.3859 23.8828L35.3859 23.8828L35.0363 23.2557L35.0363 23.2557C33.6852 20.832 33.0097 19.6201 31.9997 19.6201C30.9897 19.6201 30.3141 20.832 28.9631 23.2557L28.963 23.2557Z" fill="#6CB296"/>
</svg>
