<svg width="64" height="65" viewBox="0 0 64 65" fill="none" xmlns="http://www.w3.org/2000/svg">
<path opacity="0.5" d="M8 28.7305C8 20.2037 8 15.9402 9.00671 14.5059C10.0134 13.0716 14.0222 11.6994 22.0398 8.95491L23.5673 8.43204C27.7466 7.00144 29.8363 6.28613 32 6.28613C34.1637 6.28613 36.2534 7.00144 40.4327 8.43205L41.9602 8.95491C49.9778 11.6994 53.9866 13.0716 54.9933 14.5059C56 15.9402 56 20.2037 56 28.7305V32.9298C56 47.9646 44.6961 55.2608 37.6038 58.3589C35.68 59.1993 34.718 59.6195 32 59.6195C29.282 59.6195 28.32 59.1993 26.3962 58.3589C19.3039 55.2608 8 47.9646 8 32.9298V28.7305Z" fill="#6CB296"/>
<path d="M31.9997 20.2861C33.1042 20.2861 33.9997 21.1816 33.9997 22.2861V32.9528C33.9997 34.0574 33.1042 34.9528 31.9997 34.9528C30.8951 34.9528 29.9997 34.0574 29.9997 32.9528V22.2861C29.9997 21.1816 30.8951 20.2861 31.9997 20.2861Z" fill="#6CB296"/>
<path d="M31.9997 43.6195C33.4724 43.6195 34.6663 42.4256 34.6663 40.9528C34.6663 39.48 33.4724 38.2861 31.9997 38.2861C30.5269 38.2861 29.333 39.48 29.333 40.9528C29.333 42.4256 30.5269 43.6195 31.9997 43.6195Z" fill="#6CB296"/>
</svg>
