<svg width="16" height="17" viewBox="0 0 16 17" fill="none" xmlns="http://www.w3.org/2000/svg">
<path fill-rule="evenodd" clip-rule="evenodd" d="M16 8.95312C16 13.3714 12.4183 16.9531 8 16.9531C3.58172 16.9531 0 13.3714 0 8.95312C0 4.53485 3.58172 0.953125 8 0.953125C12.4183 0.953125 16 4.53485 16 8.95312ZM11.4766 13.8438C10.4958 14.5423 9.29586 14.9531 8 14.9531C4.68629 14.9531 2 12.2668 2 8.95312C2 7.65726 2.41081 6.45735 3.1093 5.47652L11.4766 13.8438ZM12.8908 12.4296L4.52354 4.06233C5.50434 3.3639 6.7042 2.95312 8 2.95312C11.3137 2.95312 14 5.63942 14 8.95312C14 10.2489 13.5892 11.4488 12.8908 12.4296Z" fill="#E6E6E6"/>
</svg>
