<svg width="24" height="24" viewBox="0 0 24 24" fill="none" xmlns="http://www.w3.org/2000/svg">
<path fill-rule="evenodd" clip-rule="evenodd" d="M6.77387 2.78987C7.67416 2.71802 8.52885 2.364 9.21626 1.7782C10.8204 0.411173 13.1797 0.411173 14.7838 1.7782C15.4712 2.364 16.3259 2.71802 17.2262 2.78987C19.3272 2.95752 20.9955 4.62583 21.1631 6.72675C21.235 7.62704 21.589 8.48173 22.1748 9.16914C23.5418 10.7733 23.5418 13.1326 22.1748 14.7367C21.589 15.4241 21.235 16.2788 21.1631 17.1791C20.9955 19.28 19.3272 20.9483 17.2262 21.116C16.3259 21.1878 15.4712 21.5419 14.7838 22.1277C13.1797 23.4947 10.8204 23.4947 9.21626 22.1277C8.52885 21.5419 7.67416 21.1878 6.77387 21.116C4.67295 20.9483 3.00464 19.28 2.83699 17.1791C2.76514 16.2788 2.41112 15.4241 1.82532 14.7367C0.458292 13.1326 0.458292 10.7733 1.82532 9.16914C2.41112 8.48173 2.76514 7.62704 2.83699 6.72675C3.00464 4.62583 4.67295 2.95752 6.77387 2.78987ZM17.19 10.1429C17.7367 9.59615 17.7367 8.70971 17.19 8.16298C16.6433 7.61625 15.7568 7.61625 15.2101 8.16298L10.6 12.773L8.79 10.963C8.24327 10.4162 7.35683 10.4162 6.8101 10.963C6.26337 11.5097 6.26337 12.3961 6.8101 12.9429L9.6101 15.7429C10.1568 16.2896 11.0433 16.2896 11.59 15.7429L17.19 10.1429Z" fill="#6CB296"/>
</svg>
