<svg width="20" height="23" viewBox="0 0 20 23" fill="none" xmlns="http://www.w3.org/2000/svg">
<path d="M8 17.9531C7.448 17.9531 7 17.5061 7 16.9531V10.9531C7 10.4011 7.448 9.95312 8 9.95312C8.552 9.95312 9 10.4011 9 10.9531V16.9531C9 17.5061 8.552 17.9531 8 17.9531Z" fill="#FA502B"/>
<path d="M11 16.9531C11 17.5061 11.447 17.9531 12 17.9531C12.553 17.9531 13 17.5061 13 16.9531V10.9531C13 10.4011 12.553 9.95312 12 9.95312C11.447 9.95312 11 10.4011 11 10.9531V16.9531Z" fill="#FA502B"/>
<path fill-rule="evenodd" clip-rule="evenodd" d="M5 4.95312V3.95312C5 2.41112 6.458 0.953125 8 0.953125H12C13.542 0.953125 15 2.41112 15 3.95312V4.95312H19C19.553 4.95312 20 5.40112 20 5.95312C20 6.50513 19.553 6.95312 19 6.95312H18V19.9531C18 21.4951 16.542 22.9531 15 22.9531H5C3.458 22.9531 2 21.4951 2 19.9531V6.95312H1C0.448 6.95312 0 6.50513 0 5.95312C0 5.40112 0.448 4.95312 1 4.95312H5ZM4 6.95312V19.9531C4 20.4011 4.551 20.9531 5 20.9531H15C15.448 20.9531 16 20.4011 16 19.9531V6.95312H4ZM13 3.95312V4.95312H7V3.95312C7 3.50413 7.551 2.95312 8 2.95312H12C12.448 2.95312 13 3.50413 13 3.95312Z" fill="#FA502B"/>
</svg>
