<svg width="20" height="20" viewBox="0 0 20 20" fill="none" xmlns="http://www.w3.org/2000/svg">
<path d="M13.1289 13L19.1289 19M8.12891 15C4.26291 15 1.12891 11.866 1.12891 8C1.12891 4.13401 4.26291 1 8.12891 1C11.9949 1 15.1289 4.13401 15.1289 8C15.1289 11.866 11.9949 15 8.12891 15Z" stroke="#1B212D" stroke-width="1.5" stroke-linecap="round"/>
<path d="M13.1289 13L19.1289 19M8.12891 15C4.26291 15 1.12891 11.866 1.12891 8C1.12891 4.13401 4.26291 1 8.12891 1C11.9949 1 15.1289 4.13401 15.1289 8C15.1289 11.866 11.9949 15 8.12891 15Z" stroke="black" stroke-opacity="0.2" stroke-width="1.5" stroke-linecap="round"/>
<path d="M13.1289 13L19.1289 19M8.12891 15C4.26291 15 1.12891 11.866 1.12891 8C1.12891 4.13401 4.26291 1 8.12891 1C11.9949 1 15.1289 4.13401 15.1289 8C15.1289 11.866 11.9949 15 8.12891 15Z" stroke="black" stroke-opacity="0.2" stroke-width="1.5" stroke-linecap="round"/>
</svg>
